<svg version="1" xmlns="http://www.w3.org/2000/svg" viewBox="0 0 400 378.6"><linearGradient id="a" gradientUnits="userSpaceOnUse" x1="58.015" y1="274.564" x2="285.333" y2="47.245"><stop offset="0" stop-color="#ED1A62"/><stop offset=".885" stop-color="#3799D4"/></linearGradient><path fill="url(#a)" d="M232.2 0C191.7 160.8 30.1 203.9 0 210.5v6h238.1V0h-5.9z"/><g opacity=".25" fill="#565659"><path d="M256.8 378.6V298c37.1 1.8 71.4 14.8 99.5 35.6-25.7 26-60.7 42.8-99.5 45zM256.8 153.9V73.4c38.9 2.2 73.8 19 99.5 44.9-28.1 20.8-62.4 33.8-99.5 35.6zM239.2 298v80.5c-38.8-2.2-73.8-19-99.5-44.9 28.1-20.8 62.4-33.8 99.5-35.6zM239.2 235.4v45.1c-41.6 1.8-79.9 16.4-111.1 39.9-18.6-23.7-30.3-53-32.1-85h143.2zM256.8 280.5v-45.1H400c-1.8 32-13.5 61.3-32.1 85-31.2-23.5-69.5-38.1-111.1-39.9zM256.8 216.5v-45.1c41.6-1.8 79.9-16.4 111.1-39.9 18.6 23.7 30.3 53 32.1 85H256.8z"/></g></svg>